<svg xmlns="http://www.w3.org/2000/svg" width="510" height="430" viewBox="0 0 510 430" role="img" aria-labelledby="title"><title id="title">Mateus Menezes technical profile</title><style>text{font-family:ui-monospace,SFMono-Regular,Menlo,Consolas,monospace}.k{fill:#8b949e;font-size:12px}.v{fill:#e6edf3;font-size:12px}.n{fill:#e6edf3;font-size:18px;font-weight:700}</style><rect width="510" height="430" rx="12" fill="#0d1117" stroke="#8b949e" stroke-opacity=".35"/><circle cx="25" cy="25" r="5" fill="#00bcd4"/><text x="40" y="31" class="n">Mateus Menezes</text><path d="M22 43H488" stroke="#8b949e" stroke-opacity=".45"/><g opacity="1"><text x="22" y="63" class="k">Role</text><text x="119" y="63" class="v">LMS / Moodle Analyst</text></g><g opacity="1"><text x="22" y="87" class="k">Focus</text><text x="119" y="87" class="v">Automation · Backend · Applied AI</text></g><g opacity="1"><text x="22" y="111" class="k">Degree</text><text x="119" y="111" class="v">Computer Science</text></g><g opacity="1"><text x="22" y="143" class="k">Languages</text><text x="119" y="143" class="v">Python · JavaScript · SQL</text></g><g opacity="1"><text x="22" y="167" class="k">Backend</text><text x="119" y="167" class="v">FastAPI · REST APIs</text></g><g opacity="1"><text x="22" y="191" class="k">Frontend</text><text x="119" y="191" class="v">React · Next.js</text></g><g opacity="1"><text x="22" y="215" class="k">Data</text><text x="119" y="215" class="v">PostgreSQL · SQLite</text></g><g opacity="1"><text x="22" y="239" class="k">DevOps</text><text x="119" y="239" class="v">Docker · Git · GitHub</text></g><g opacity="1"><text x="22" y="263" class="k">Testing</text><text x="119" y="263" class="v">Pytest</text></g><g opacity="1"><text x="22" y="287" class="k">Automation</text><text x="119" y="287" class="v">Playwright</text></g><g opacity="1"><text x="22" y="311" class="k">LMS</text><text x="119" y="311" class="v">Moodle</text></g><g opacity="1"><text x="22" y="335" class="k">AI</text><text x="119" y="335" class="v">LLMs · ML · Generative AI</text></g><g opacity="1"><text x="22" y="367" class="k">Building</text><text x="119" y="367" class="v">SaaS · Automation · AI Tools</text></g></svg>